<svg id="Discord_Logo" data-name="Discord Logo" xmlns="http://www.w3.org/2000/svg" width="30" height="30" viewBox="0 0 30 30">
  <circle id="Elipse_7" data-name="Elipse 7" cx="15" cy="15" r="15" fill="#8a9cfe" opacity="0"/>
  <path id="Trazado_114" data-name="Trazado 114" d="M27.28,16.787A8.852,8.852,0,0,0,22.263,14.9l-.248.3a12.351,12.351,0,0,1,4.471,2.285,15.089,15.089,0,0,0-13.362-.5c-.646.3-1.043.5-1.043.5A12.433,12.433,0,0,1,16.8,15.148l-.2-.2a8.852,8.852,0,0,0-5.017,1.888A23.912,23.912,0,0,0,9,27.269,6.523,6.523,0,0,0,14.464,30s.646-.795,1.192-1.49a5.617,5.617,0,0,1-3.129-2.086,3.5,3.5,0,0,0,.745.447,13.178,13.178,0,0,0,11.177.646,11.325,11.325,0,0,0,2.037-1.043,5.546,5.546,0,0,1-3.229,2.136c.546.7,1.192,1.441,1.192,1.441a6.523,6.523,0,0,0,5.464-2.732A24.515,24.515,0,0,0,27.28,16.787ZM16.1,25.53a1.934,1.934,0,0,1-1.838-1.987,1.844,1.844,0,1,1,3.676,0A1.968,1.968,0,0,1,16.1,25.53Zm6.507,0a1.934,1.934,0,0,1-1.838-1.987,1.844,1.844,0,1,1,1.838,1.987Z" transform="translate(-4.53 -7.473)" fill="#fdfdfd"/>
</svg>
