<svg xmlns="http://www.w3.org/2000/svg" xmlns:xlink="http://www.w3.org/1999/xlink" version="1.1" width="256" height="256" viewBox="0 0 256 256" xml:space="preserve">
<desc>Created with Fabric.js 1.7.22</desc>
<defs>
</defs>
<g transform="translate(128 128) scale(0.72 0.72)" style="">
	<g style="stroke: none; stroke-width: 0; stroke-dasharray: none; stroke-linecap: butt; stroke-linejoin: miter; stroke-miterlimit: 10; fill: none; fill-rule: nonzero; opacity: 1;" transform="translate(-175.05 -175.05000000000004) scale(3.89 3.89)" >
	<path d="M 45 0 C 20.187 0 0 20.187 0 45 c 0 24.814 20.187 45 45 45 s 45 -20.187 45 -45 C 90 20.187 69.813 0 45 0 z M 45 87.033 c -5.167 0 -10.609 -9.875 -12.889 -25.753 c 4.07 0.443 8.39 0.684 12.889 0.684 c 4.499 0 8.819 -0.241 12.889 -0.684 C 55.609 77.158 50.167 87.033 45 87.033 z M 45 58.997 c -4.739 0 -9.183 -0.258 -13.278 -0.72 c -0.463 -4.094 -0.72 -8.539 -0.72 -13.277 s 0.258 -9.183 0.72 -13.277 c 4.095 -0.463 8.539 -0.72 13.278 -0.72 s 9.183 0.258 13.278 0.72 c 0.463 4.094 0.72 8.539 0.72 13.277 s -0.258 9.183 -0.72 13.277 C 54.183 58.739 49.739 58.997 45 58.997 z M 28.719 57.888 C 12.842 55.608 2.967 50.166 2.967 45 c 0 -5.167 9.875 -10.609 25.752 -12.888 c -0.443 4.07 -0.684 8.39 -0.684 12.888 C 28.035 49.498 28.276 53.818 28.719 57.888 z M 45 2.967 c 5.167 0 10.609 9.875 12.889 25.753 c -4.07 -0.443 -8.39 -0.684 -12.889 -0.684 c -4.499 0 -8.819 0.241 -12.889 0.684 C 34.391 12.842 39.833 2.967 45 2.967 z M 61.281 32.111 C 77.159 34.391 87.033 39.833 87.033 45 c 0 5.166 -9.874 10.608 -25.752 12.888 c 0.443 -4.07 0.684 -8.39 0.684 -12.888 C 61.965 40.501 61.724 36.181 61.281 32.111 z M 86.496 38.318 c -4.743 -4.283 -13.967 -7.619 -25.586 -9.227 c -1.608 -11.619 -4.944 -20.844 -9.228 -25.586 C 69.517 6.366 83.634 20.483 86.496 38.318 z M 38.318 3.504 c -4.283 4.743 -7.62 13.967 -9.228 25.586 c -11.619 1.608 -20.843 4.945 -25.586 9.227 C 6.366 20.483 20.483 6.366 38.318 3.504 z M 3.504 51.682 c 4.743 4.283 13.967 7.619 25.586 9.227 c 1.608 11.619 4.945 20.844 9.228 25.587 C 20.483 83.634 6.366 69.517 3.504 51.682 z M 51.682 86.496 c 4.283 -4.743 7.62 -13.968 9.228 -25.587 c 11.619 -1.608 20.843 -4.944 25.586 -9.227 C 83.634 69.517 69.517 83.634 51.682 86.496 z" style="stroke: none; stroke-width: 1; stroke-dasharray: none; stroke-linecap: butt; stroke-linejoin: miter; stroke-miterlimit: 10; fill: rgb(0,0,0); fill-rule: nonzero; opacity: 1;" transform=" matrix(1 0 0 1 0 0) " stroke-linecap="round" />
</g>
</g>
</svg>