<svg id="Instagram_Logo" data-name="Instagram Logo" xmlns="http://www.w3.org/2000/svg" xmlns:xlink="http://www.w3.org/1999/xlink" width="30" height="30" viewBox="0 0 30 30">
  <defs>
    <linearGradient id="linear-gradient" x1="0.146" y1="0.854" x2="0.853" y2="0.146" gradientUnits="objectBoundingBox">
      <stop offset="0" stop-color="#f3ca5f"/>
      <stop offset="0.215" stop-color="#f88827"/>
      <stop offset="0.43" stop-color="#dc2d5c"/>
      <stop offset="0.71" stop-color="#a44882"/>
      <stop offset="1" stop-color="#46469b"/>
    </linearGradient>
  </defs>
  <path id="Trazado_123" data-name="Trazado 123" d="M30,15A15,15,0,1,1,14.99,0,15,15,0,0,1,30,15Z" opacity="0" fill="url(#linear-gradient)"/>
  <path id="Trazado_124" data-name="Trazado 124" d="M43.668,47.741H34.14A3.952,3.952,0,0,1,30.2,43.8V34.243A3.952,3.952,0,0,1,34.14,30.3h9.527a3.952,3.952,0,0,1,3.94,3.943v9.534A3.956,3.956,0,0,1,43.668,47.741ZM34.14,32.032a2.225,2.225,0,0,0-2.21,2.211v9.534a2.212,2.212,0,0,0,2.21,2.211h9.527a2.225,2.225,0,0,0,2.21-2.211V34.243a2.225,2.225,0,0,0-2.21-2.211Zm4.753,11.537a4.506,4.506,0,1,1,4.5-4.506A4.513,4.513,0,0,1,38.894,43.568Zm0-7.281a2.775,2.775,0,1,0,2.773,2.775A2.786,2.786,0,0,0,38.894,36.287Zm4.691-2.837A1.157,1.157,0,0,0,42.438,34.6a1.144,1.144,0,0,0,1.147,1.147A1.157,1.157,0,0,0,44.731,34.6,1.171,1.171,0,0,0,43.584,33.45Z" transform="translate(-23.904 -23.979)" fill="#fff"/>
</svg>
