<svg id="Medium_Logo" data-name="Medium Logo" xmlns="http://www.w3.org/2000/svg" width="30" height="30" viewBox="0 0 30 30">
  <g id="Grupo_153" data-name="Grupo 153">
    <g id="Grupo_152" data-name="Grupo 152">
      <path id="Trazado_118" data-name="Trazado 118" d="M15,0A15,15,0,1,0,30,15,15,15,0,0,0,15,0Z" fill="#3b4148" opacity="0"/>
    </g>
  </g>
  <g id="Grupo_154" data-name="Grupo 154" transform="translate(6.476 7.664)">
    <path id="Trazado_119" data-name="Trazado 119" d="M24.361,10.895l-5.4-2.7a.19.19,0,0,0-.078-.019h-.006a.2.2,0,0,0-.166.09l-3.328,5.408L19.1,19.711l5.315-8.636A.127.127,0,0,0,24.361,10.895Z" transform="translate(-7.438 -8.175)" fill="rgba(255,255,255,0.9)"/>
    <path id="Trazado_120" data-name="Trazado 120" d="M13.5,12.013v5.828l5.181,2.589Z" transform="translate(-7.32 -8.415)" fill="rgba(255,255,255,0.9)"/>
    <path id="Trazado_121" data-name="Trazado 121" d="M19.514,20.663l4.757,2.378a.3.3,0,0,0,.472-.292V12.166Z" transform="translate(-7.696 -8.424)" fill="rgba(255,255,255,0.9)"/>
    <path id="Trazado_122" data-name="Trazado 122" d="M12.521,10.926,7.538,8.435l-.315-.158A.288.288,0,0,0,7.1,8.244a.172.172,0,0,0-.136.062.26.26,0,0,0-.052.166V19.844a.625.625,0,0,0,.315.509l4.9,2.448a.436.436,0,0,0,.191.05c.165,0,.28-.127.28-.342V11.04A.125.125,0,0,0,12.521,10.926Z" transform="translate(-6.908 -8.179)" fill="rgba(255,255,255,0.9)"/>
  </g>
</svg>
