<svg xmlns="http://www.w3.org/2000/svg" width="144.793" height="38.438" viewBox="0 0 144.793 38.438">
  <g id="smurf-logo" transform="translate(0 0)">
    <g id="Grupo_327" data-name="Grupo 327" transform="translate(0)">
      <path id="Trazado_593" data-name="Trazado 593" d="M561.528,279.963c-1.126-2.142-3.268-3.813-6.464-4.938-2.179-.763-5.992-2.251-6.318-4.5-.254-1.67,1.089-2.324,2.76-2.578,2.215-.327,4.14.182,6.173,2.469a.759.759,0,0,0,1.271-.218l2.142-5.41a.731.731,0,0,0-.109-.763,10.09,10.09,0,0,0-7.916-3.922c-2.288,0-5.883.508-7.916,1.924-2.941,2-3.922,5.592-3.45,8.933a8.4,8.4,0,0,0,4.83,6.9c2.142,1.089,4.394,2.142,6.718,3.123,1.489.617,2.978,1.6,3.087,3.2.036.472.073,1.779-2.905,2.36-.109-.036-2.869,1.089-6.282-4.067a.764.764,0,0,0-1.271.036c-2.905,5.047-3.631,5.3-3.123,5.991,3.05,4.248,6.5,5.592,10.894,4.975,4.176-.581,7.88-2.288,8.751-6.391a10.961,10.961,0,0,0-.872-7.117" transform="translate(-541.589 -255.175)" fill="rgba(255,255,255,0.9)"/>
      <path id="Trazado_594" data-name="Trazado 594" d="M623.011,267.126c-6.391-.617-5.919-.581-5.992-.581a.735.735,0,0,0-.726.581q-1.144,4.466-3.05,11.112c-.654-3.3-1.271-7.045-1.815-11.184a.743.743,0,0,0-.726-.654h0l-7.48.181a.76.76,0,0,0-.726.763c.509,26.762-.726,27.343.763,27.343,4.975-.073,5.084.182,5.483-.218.4-.436.073.508-.036-13.327l1.126,5.592a.812.812,0,0,0,.69.617c3.885.218,3.413.182,3.45.182a.79.79,0,0,0,.726-.508l2.36-6.9c-.073,4.575-.29,9.55-.617,14.852a.753.753,0,0,0,.762.8c5.229-.073,5.3.182,5.665-.218.654-.69-.508-2.723.871-27.561a.843.843,0,0,0-.726-.872" transform="translate(-573.278 -259.187)" fill="rgba(255,255,255,0.9)"/>
      <path id="Trazado_595" data-name="Trazado 595" d="M724.085,262.007a3.957,3.957,0,0,1-.508,1.416c-.436.726-1.816,1.925-5.883,3.486l.69-6.972c1.126.036,2.215.109,3.341.254,1.053.109,2.469.726,2.36,1.816m.69-6.282c-1.961-.908-5.047-1.525-9.514-1.924-1.706-.145-1.924-.182-2.215.073-.654.581.109,1.162-2.251,28.105a.725.725,0,0,0,.726.8c6.355.073,4.248.073,4.684.073a.786.786,0,0,0,.763-.726l.145-7.589c6.209,9.841,5.519,10.494,6.5,10.494a.7.7,0,0,0,.436-.145l4.793-3.413a.58.58,0,0,0,.291-.508.826.826,0,0,0-.145-.581c-2.941-3.74-5.338-6.9-7.117-9.332,4.539-1.961,7.008-3.958,7.517-6.064,1.053-4.793-.508-7.371-4.612-9.259" transform="translate(-630.121 -251.09)" fill="rgba(255,255,255,0.9)"/>
      <path id="Trazado_596" data-name="Trazado 596" d="M776.805,283.934a.743.743,0,0,0-.726-.654c-.073,0,.835-.109-6.028.8l-.4-3.776c2.251-.182,4.249-.254,5.991-.254a.753.753,0,0,0,.763-.8c-.4-3.74-.182-3.958-.617-4.321a.782.782,0,0,0-.581-.145l-9.659,1.38a.755.755,0,0,0-.654.8c2.215,22.3,1.38,21.787,2.033,22.3a.759.759,0,0,0,.617.145l3.813-.8a.728.728,0,0,0,.581-.8l-.654-8.315,5.338-.763a.791.791,0,0,0,.654-.835Z" transform="translate(-660.08 -264.52)" fill="rgba(255,255,255,0.9)"/>
      <path id="Trazado_597" data-name="Trazado 597" d="M818.343,280.519c-.4-3.922-2.941-6.246-6.609-7.734-1.925-.763-5.374-2.251-5.592-4.285-.145-1.525,1.053-2.033,2.578-2.179a5.765,5.765,0,0,1,5.519,2.433.758.758,0,0,0,.581.29h.109a.8.8,0,0,0,.581-.436c1.924-4.757,2.542-5.047,2.033-5.665a9.259,9.259,0,0,0-7.771-3.849c-2.215.073-4.938.363-6.79,1.525a8.345,8.345,0,0,0-3.486,8.134,7.751,7.751,0,0,0,4.249,6.536c5.882,3.3,8.678,3.559,8.751,6.064,0,.436,0,1.6-2.687,2-.145,0-.327.036-.581.036-1.707,0-3.413-1.307-5.011-3.922a.749.749,0,0,0-.617-.363h0a.713.713,0,0,0-.617.327l-3.087,4.648a.709.709,0,0,0,0,.835c2.869,4.357,6.681,6.137,12.891,4.321,2.9-.835,4.684-2.505,5.3-5.047a11.592,11.592,0,0,0,.254-3.667" transform="translate(-676.491 -254.533)" fill="rgba(255,255,255,0.9)"/>
      <path id="Trazado_598" data-name="Trazado 598" d="M679.953,276.532c-.036,0-3.994.145-3.74.109a.737.737,0,0,0-.726.763c0,3.813-.036,6.936-.109,9.26-.036,1.307-.109,2.433-.182,3.268-.218,2.687-1.561,3.2-2.578,3.3h-.073c-2.07-.073-2.033-2.4-2.033-3.377,0-.654.036-1.416.073-2.288.109-2.869.29-7.008.617-12.31a.746.746,0,0,0-.726-.8c-6.1-.109-4.285-.073-4.648-.073a.786.786,0,0,0-.763.726c-.145,6.318-.218,11.8-.182,16.34.036,4.938,2.615,7.626,7.408,7.771h.073c4.575-.254,7.262-2.76,7.734-7.262.254-2.433.436-5.193.545-8.134.073-2.034.109-4.249.109-6.573a.794.794,0,0,0-.8-.726" transform="translate(-606.536 -264.272)" fill="rgba(255,255,255,0.9)"/>
      <path id="Trazado_599" data-name="Trazado 599" d="M672.5,246.668c-.073-.218-.4-.109-.726-.073-.036,0-4.575.327-4.612.327-.072,0,.036.726.291.8a13.068,13.068,0,0,0,1.307.145c.182,0,.145,0,.145.145,0,2.142.436,6.355.436,6.391.036.327.617.327.944.291.182,0,.036-.182.036-3.3h0V248.7a4.635,4.635,0,0,0,.036-.763l.036-.036c.073-.036,1.707.073,1.852-.182a1.406,1.406,0,0,0,.254-1.053" transform="translate(-609.081 -246.536)" fill="rgba(255,255,255,0.9)"/>
      <path id="Trazado_600" data-name="Trazado 600" d="M685.44,246.775a1.738,1.738,0,0,0-1.053.254c-.254,1.307-.109,5.229-.182,5.338h0c-.254,0-.508-.036-1.307-.109a10.489,10.489,0,0,1,.073-1.525c.29-3.559.654-3.522-.8-3.2-.182.073-.182-.109-.291.944-.363,4.14.254,3.667-.545,3.667a.741.741,0,0,0-.036.291c.036.182.436.073.436.254.036,1.961-.036,1.924.073,2.033,0,0,.145.218.8.218.073,0,.218-2.179.218-2.033,0-.036.036-.036.073-.036l.4.073c1.235.29.908.036.98.545.036,1.089-.073,1.235.363,1.38a1.271,1.271,0,0,0,.545.073c.036,0,.073.073.145-1.344-.072-3.667.617-6.718.109-6.827" transform="translate(-616.829 -246.679)" fill="rgba(255,255,255,0.9)"/>
      <path id="Trazado_601" data-name="Trazado 601" d="M698.358,254.249c-.036-.109-.145-.036-.436-.073-.073,0-2.4-.036-2.433-.109-.073,0,0-.145.036-.617.109-1.271-.145-.835.944-1.053l.218-.036c.363-.036.545,0,.617-.145a.873.873,0,0,0,0-.436,4.821,4.821,0,0,0-1.562.145s-.072,0-.072-.036c0,0,.145-1.779.145-1.816l.036-.29c.218-1.67-.29-.69,2.36-1.2.218-.036.254-1.561-.073-1.489-.036,0-2.4.508-3.05.581-.145.036-.363.073-.4.182-.218.617-.254,4.721-.291,4.975h0c.036,2-.073,1.961.109,2.142a18.091,18.091,0,0,0,3.631.617,1.885,1.885,0,0,0,.182-.472,1.822,1.822,0,0,0,.036-.872" transform="translate(-623.93 -246.891)" fill="rgba(255,255,255,0.9)"/>
    </g>
    <g id="Grupo_329" data-name="Grupo 329" transform="translate(141.888 32.341)">
      <g id="Grupo_328" data-name="Grupo 328" transform="translate(0 0)">
        <path id="Trazado_602" data-name="Trazado 602" d="M851.6,335.818h.436v1.2h.327v-1.2h.436V335.6h-1.2Z" transform="translate(-851.6 -335.6)" fill="rgba(255,255,255,0.9)"/>
        <path id="Trazado_603" data-name="Trazado 603" d="M856.353,335.6l-.254.944-.254-.944H855.3v1.416h.327v-1.089l.291,1.089h.327l.327-1.089v1.089h.291V335.6Z" transform="translate(-853.957 -335.6)" fill="rgba(255,255,255,0.9)"/>
      </g>
    </g>
  </g>
</svg>
