<svg xmlns="http://www.w3.org/2000/svg" width="30" height="30" viewBox="0 0 30 30">
  <g id="YouTube_Logo" data-name="YouTube Logo" transform="translate(-1649.428 -3918)">
    <g id="g5355" transform="translate(1649.428 3918)">
      <rect id="rect4" width="30" height="30" rx="15" fill="red" opacity="0"/>
      <g id="g4167" transform="translate(6 7.999)">
        <path id="path4156" d="M19.267,15.845a58.343,58.343,0,0,0-7.429.387,2.455,2.455,0,0,0-1.678,1.69A25.421,25.421,0,0,0,9.773,22.5a25.174,25.174,0,0,0,.387,4.565,2.418,2.418,0,0,0,1.678,1.678,56.734,56.734,0,0,0,7.429.4,58.508,58.508,0,0,0,7.44-.387,2.361,2.361,0,0,0,1.666-1.678,24.519,24.519,0,0,0,.4-4.565,23.76,23.76,0,0,0-.4-4.589,2.346,2.346,0,0,0-1.666-1.666C25.217,15.845,19.267,15.845,19.267,15.845Zm-1.889,3.8L22.318,22.5l-4.941,2.84V19.647Z" transform="translate(-9.773 -15.845)" fill="rgba(255,255,255,0.9)"/>
      </g>
    </g>
  </g>
</svg>
